<svg width="84" height="84" viewBox="0 0 84 84" fill="none" xmlns="http://www.w3.org/2000/svg">
  <g stroke="#1F2937" stroke-width="7" stroke-linecap="round" stroke-linejoin="round">
    <path d="M18 17C18 12.5 21.5 9 26 9H57"/>
    <path d="M26 9C21.5 9 18 12.5 18 17C18 21.5 21.5 25 26 25H44C48.5 25 52 21.5 52 17"/>
    <path d="M18 17V24C18 28.5 21.5 32 26 32H38C42.5 32 46 35.5 46 40C46 44.5 42.5 48 38 48H33C28.5 48 25 51.5 25 56V66"/>
    <path d="M25 66V56C25 51.5 21.5 48 17 48C12.5 48 9 51.5 9 56V61"/>
  </g>
</svg>
