<svg width="320" height="110" viewBox="0 0 320 110" fill="none" xmlns="http://www.w3.org/2000/svg">
  <g stroke="#F3F5F4" stroke-width="9" stroke-linecap="round" stroke-linejoin="round">
    <path d="M26 26C26 20 31 15 37 15H106"/>
    <path d="M37 15C31 15 26 20 26 26C26 32 31 37 37 37H84C90 37 95 32 95 26"/>
    <path d="M26 26V35C26 41 31 46 37 46H64C70 46 75 51 75 57C75 63 70 68 64 68H56C50 68 45 73 45 79V90"/>
    <path d="M45 90V79C45 73 40 68 34 68C28 68 23 73 23 79V85"/>
  </g>
  <text x="92" y="78" fill="#F3F5F4" font-family="Georgia, 'Times New Roman', serif" font-size="64" font-weight="500">inFlow</text>
</svg>
