<svg xmlns="http://www.w3.org/2000/svg" viewBox="0 0 1200 760">
  <defs>
    <linearGradient id="bg" x1="0" y1="0" x2="1" y2="1">
      <stop offset="0" stop-color="#f8fafc"/>
      <stop offset="1" stop-color="#e2e8f0"/>
    </linearGradient>
    <linearGradient id="accent" x1="0" y1="0" x2="1" y2="0">
      <stop offset="0" stop-color="#06b6d4"/>
      <stop offset="1" stop-color="#3b82f6"/>
    </linearGradient>
  </defs>
  <rect width="1200" height="760" fill="url(#bg)"/>
  <rect x="50" y="40" width="1100" height="680" rx="24" fill="#ffffff" stroke="#cbd5e1"/>

  <rect x="88" y="78" width="260" height="22" rx="11" fill="#cbd5e1"/>
  <rect x="980" y="76" width="130" height="32" rx="16" fill="#dcfce7"/>
  <rect x="994" y="85" width="64" height="14" rx="7" fill="#16a34a"/>

  <rect x="88" y="130" width="238" height="118" rx="16" fill="#f8fafc" stroke="#e2e8f0"/>
  <rect x="104" y="154" width="120" height="14" rx="7" fill="#94a3b8"/>
  <rect x="104" y="180" width="170" height="20" rx="10" fill="#0f172a"/>

  <rect x="346" y="130" width="238" height="118" rx="16" fill="#f8fafc" stroke="#e2e8f0"/>
  <rect x="362" y="154" width="120" height="14" rx="7" fill="#94a3b8"/>
  <rect x="362" y="180" width="170" height="20" rx="10" fill="#047857"/>

  <rect x="604" y="130" width="238" height="118" rx="16" fill="#f8fafc" stroke="#e2e8f0"/>
  <rect x="620" y="154" width="120" height="14" rx="7" fill="#94a3b8"/>
  <rect x="620" y="180" width="170" height="20" rx="10" fill="#b45309"/>

  <rect x="862" y="130" width="238" height="118" rx="16" fill="#f8fafc" stroke="#e2e8f0"/>
  <rect x="878" y="154" width="120" height="14" rx="7" fill="#94a3b8"/>
  <rect x="878" y="180" width="170" height="20" rx="10" fill="#0369a1"/>

  <rect x="88" y="276" width="670" height="390" rx="18" fill="#f8fafc" stroke="#e2e8f0"/>
  <rect x="112" y="304" width="190" height="14" rx="7" fill="#64748b"/>
  <rect x="624" y="300" width="108" height="12" rx="6" fill="#94a3b8"/>

  <g>
    <line x1="120" y1="620" x2="730" y2="620" stroke="#cbd5e1" stroke-width="2"/>
    <line x1="120" y1="360" x2="120" y2="620" stroke="#cbd5e1" stroke-width="2"/>
    <polyline points="130,586 188,542 246,558 304,494 362,520 420,468 478,482 536,426 594,446 652,392 710,410" fill="none" stroke="url(#accent)" stroke-width="8" stroke-linecap="round" stroke-linejoin="round"/>
    <circle cx="710" cy="410" r="8" fill="#3b82f6"/>
  </g>

  <rect x="782" y="276" width="318" height="390" rx="18" fill="#f8fafc" stroke="#e2e8f0"/>
  <rect x="806" y="304" width="170" height="14" rx="7" fill="#64748b"/>

  <rect x="806" y="338" width="270" height="58" rx="12" fill="#ffffff" stroke="#e2e8f0"/>
  <rect x="822" y="358" width="124" height="10" rx="5" fill="#94a3b8"/>
  <rect x="1008" y="356" width="52" height="14" rx="7" fill="#dcfce7"/>

  <rect x="806" y="408" width="270" height="58" rx="12" fill="#ffffff" stroke="#e2e8f0"/>
  <rect x="822" y="428" width="124" height="10" rx="5" fill="#94a3b8"/>
  <rect x="1008" y="426" width="52" height="14" rx="7" fill="#fef3c7"/>

  <rect x="806" y="478" width="270" height="58" rx="12" fill="#ffffff" stroke="#e2e8f0"/>
  <rect x="822" y="498" width="124" height="10" rx="5" fill="#94a3b8"/>
  <rect x="1008" y="496" width="52" height="14" rx="7" fill="#dbeafe"/>

  <rect x="806" y="548" width="270" height="58" rx="12" fill="#ffffff" stroke="#e2e8f0"/>
  <rect x="822" y="568" width="124" height="10" rx="5" fill="#94a3b8"/>
  <rect x="1008" y="566" width="52" height="14" rx="7" fill="#dcfce7"/>
</svg>
